<svg xmlns="http://www.w3.org/2000/svg" viewBox="0 0 472.6 472.6" xml:space="preserve">
	<path d="M157 56.7a10 10 0 0 0-6.7-6.4l-40.3-11-23-35c-3.6-5.5-12.8-5.5-16.5 0l-23 35-40.2 11A9.8 9.8 0 0 0 2.2 66l26.2 32.5-2.1 41.8a10 10 0 0 0 4.1 8.4c2.7 2 6.1 2.5 9.3 1.3l39-14.9 39.2 15q1.8.5 3.5.5 3 0 5.7-1.9a10 10 0 0 0 4.2-8.4l-2.1-41.8L155.4 66c2-2.5 2.7-6 1.7-9.2m39.8-7.7h167.4v19.7H196.9zm0 49.2h275.7V118H196.9zM157 217.7a10 10 0 0 0-6.7-6.5l-40.3-11-23-35c-3.6-5.5-12.8-5.5-16.5 0l-23 35-40.2 11a10 10 0 0 0-6.8 6.5c-1 3.1-.4 6.6 1.7 9.1l26.2 32.6-2.1 41.8a10 10 0 0 0 4.1 8.4c2.7 2 6.1 2.5 9.3 1.3l39-14.8L118 311q1.8.6 3.5.7 3 0 5.7-2a10 10 0 0 0 4.2-8.4l-2.1-41.8 26.2-32.6c2-2.6 2.7-6 1.7-9.1m39.7-11.2h167.4v19.7H196.9zm0 49.2h275.7v19.7H196.9zM157 378.5a10 10 0 0 0-6.7-6.5L110 361.1l-23-35c-3.6-5.6-12.8-5.6-16.5 0l-23 35-40.2 11a10 10 0 0 0-6.8 6.4c-1 3.2-.4 6.6 1.7 9.2l26.2 32.7-2.1 41.7a10 10 0 0 0 4.1 8.5 10 10 0 0 0 9.3 1.2l39-14.8 39.2 14.8a9 9 0 0 0 3.5.7q3 0 5.7-1.9a10 10 0 0 0 4.2-8.5l-2.1-41.7 26.2-32.7c2-2.6 2.7-6 1.7-9.2m39.8-4.5h167.4v19.7H196.9zm0 49.2h275.7v19.7H196.9z" />
</svg>
